<svg width="400" height="200" version="1.1" xmlns:xlink="http://www.w3.org/1999/xlink" xmlns="http://www.w3.org/2000/svg"><defs><clipPath id="e2"><rect x="34" y="39.56" width="344" height="110.14"/></clipPath><symbol><path id="e3" cursor="crosshair" fill="red" transform="rotate(45)" d="M-4,-1 L-4,1 -1,1 -1,4 1,4 1,1 4,1 4,-1 1,-1 1,-4 -1,-4 -1,-1 z"/></symbol></defs><rect width="100%" height="100%" fill="#fff" stroke-width="0px"/><text font-size="12px" font-family="Arial" font-weight="normal" text-anchor="middle" fill="black" x="200" y="20.92">Result Trends</text><g clip-path="url(#e2)"><path fill="white" d="M34 149.7L34 75.047 72.222 77.558 110.44 80.719 L110.44 149.7z" stroke="none"/><path fill="none" stroke-width="1px" stroke="#000" d="M34 75.047 L72.222 77.558 110.44 80.719 "/></g><path d="M34 152.7v-3M72.222 152.7v-3M110.44 152.7v-3M148.67 152.7v-3M186.89 152.7v-3M225.11 152.7v-3M263.33 152.7v-3M301.56 152.7v-3M339.78 152.7v-3M378 152.7v-3" stroke="#333" fill="none"/><path stroke="#333" d="M32 149.7h348" stroke-width="2px"/><g font-family="Georgia" font-size="10px" fill="#333"><text x="34" y="163.9" text-anchor="middle">F1T1</text><text x="72.222" y="163.9" text-anchor="middle">F1T2</text><text x="110.44" y="163.9" text-anchor="middle">F1T3</text><text x="148.67" y="163.9" text-anchor="middle">F2T1</text><text x="186.89" y="163.9" text-anchor="middle">F12T2</text><text x="225.11" y="163.9" text-anchor="middle">F3T1</text><text x="263.33" y="163.9" text-anchor="middle">F3T2</text><text x="301.56" y="163.9" text-anchor="middle">F3T3</text><text x="339.78" y="163.9" text-anchor="middle">F4T1</text><text x="378" y="163.9" text-anchor="middle">F4T2</text></g><path d="M29 149.7h5M29 127.67h5M29 105.64h5M29 83.616h5M29 61.588h5M29 39.56h5" stroke="#333" fill="none"/><path stroke="#333" d="M34 37.56v114.14" stroke-width="2px"/><g font-family="Georgia" font-size="10px" fill="#333"><text x="27" y="153.2" text-anchor="end">0</text><text x="27" y="131.17" text-anchor="end">20</text><text x="27" y="109.14" text-anchor="end">40</text><text x="27" y="87.116" text-anchor="end">60</text><text x="27" y="65.088" text-anchor="end">80</text><text x="27" y="43.06" text-anchor="end">100</text></g><g font-size="10px" font-family="Georgia" fill="#333"><text text-anchor="middle" font-family="Arial" fill="#000" y="181.8" x="206">Class</text></g><use x="34" y="75.047" xlink:href="#e3" id="e5"></use><use x="72.222" y="77.558" xlink:href="#e3" id="e6"></use><use x="110.44" y="80.719" xlink:href="#e3" id="e7"></use></svg>
